<svg width="61" height="62" viewBox="0 0 61 62" fill="none" xmlns="http://www.w3.org/2000/svg">
<path d="M0.975909 36.2571C2.03613 39.197 3.61181 42.3864 5.82843 44.245C10.7441 48.3675 11.7975 49.7218 13.6122 57.9667C15.4268 66.2117 23.8537 59.262 23.8537 59.262C23.8537 59.262 26.3701 57.5539 30.5885 59.9425C31.7559 60.5078 33.0575 60.7324 34.3454 60.5906C37.8567 60.4136 44.4585 58.9459 49.8377 51.194C57.5629 40.0636 62.069 36.7653 60.7818 26.8712C59.4947 16.977 58.031 11.8534 46.9118 10.1453C39.3317 8.98159 33.0861 4.94152 29.8746 2.48935C29.6567 2.32225 29.4343 2.16421 29.2074 2.01374C27.8875 1.13128 26.4067 0.521157 24.8508 0.218733C23.2949 -0.083691 21.6948 -0.0724075 20.1433 0.25193C17.1715 0.918614 14.4133 2.32486 12.1214 4.3419C11.0558 5.24847 10.0847 6.26188 9.22324 7.36647C7.75169 9.25189 6.59842 11.3681 5.80964 13.6303C4.70183 16.8962 3.37946 20.0843 1.85129 23.1736C1.01701 24.7642 0.449818 26.4826 0.172666 28.2594C-0.218525 30.9512 0.0574034 33.6986 0.975909 36.2571Z" fill="#828A9E"/>
<path d="M19.0553 55.8866C19.2993 55.8865 19.5337 55.7904 19.7084 55.619C19.8832 55.4475 19.9845 55.2142 19.9907 54.9686C20.1583 49.3172 16.9852 46.5603 16.8492 46.4462C16.6586 46.2952 16.4174 46.2244 16.1761 46.2489C15.9348 46.2733 15.7123 46.391 15.5556 46.5772C15.3988 46.7634 15.3199 47.0035 15.3356 47.2471C15.3512 47.4906 15.4601 47.7185 15.6394 47.8828C15.7551 47.9834 18.2588 50.2201 18.119 54.9104C18.1153 55.0341 18.1358 55.1573 18.1795 55.273C18.2231 55.3887 18.2889 55.4946 18.3732 55.5847C18.4575 55.6747 18.5586 55.7472 18.6707 55.798C18.7828 55.8488 18.9038 55.8768 19.0267 55.8805L19.0553 55.8866Z" fill="#62667C"/>
<path d="M6.25675 32.9581C6.29367 32.958 6.33055 32.9557 6.3672 32.9513C6.61367 32.9221 6.83855 32.7956 6.9924 32.5997C7.14626 32.4038 7.21652 32.1543 7.18773 31.9063C6.62042 27.0488 8.18483 24.6413 8.20061 24.6178C8.3418 24.4123 8.39607 24.1587 8.35147 23.9129C8.30687 23.6671 8.16706 23.4492 7.9628 23.3071C7.75853 23.165 7.50654 23.1104 7.26227 23.1553C7.01799 23.2001 6.80144 23.3408 6.66025 23.5464C6.57835 23.6643 4.6698 26.4953 5.32802 32.1263C5.35503 32.3553 5.46443 32.5663 5.63556 32.7195C5.80668 32.8728 6.02767 32.9577 6.25675 32.9581Z" fill="#62667C"/>
<path d="M43.3217 32.9581C43.4629 32.9582 43.6022 32.9261 43.7294 32.8644C43.8565 32.8026 43.9681 32.7128 44.0559 32.6016C44.1437 32.4903 44.2054 32.3606 44.2363 32.222C44.2673 32.0834 44.2667 31.9395 44.2347 31.8012C43.2459 27.535 39.3145 26.1732 37.3737 26.0492C37.1259 26.033 36.8818 26.1165 36.6952 26.2813C36.5085 26.4462 36.3946 26.6789 36.3784 26.9282C36.3623 27.1776 36.4453 27.4232 36.6091 27.611C36.7729 27.7989 37.0041 27.9135 37.2519 27.9297C37.4338 27.9426 41.4951 28.2813 42.4103 32.2292C42.4583 32.4363 42.5744 32.621 42.7399 32.7534C42.9053 32.8857 43.1104 32.9578 43.3217 32.9581Z" fill="#62667C"/>
<path d="M53.2326 35.6273C53.4613 35.6276 53.6822 35.5434 53.8533 35.3906C56.913 32.6632 56.4471 28.1362 56.4261 27.9449C56.3987 27.6965 56.2743 27.4693 56.0804 27.3131C55.8865 27.157 55.639 27.0848 55.3921 27.1124C55.1453 27.1399 54.9195 27.265 54.7644 27.4602C54.6092 27.6553 54.5375 27.9044 54.5649 28.1528C54.5686 28.1899 54.9353 31.9086 52.6112 33.9796C52.4689 34.1064 52.3683 34.2738 52.3228 34.4596C52.2772 34.6453 52.289 34.8406 52.3565 35.0194C52.4239 35.1983 52.5439 35.3522 52.7004 35.4608C52.8569 35.5694 53.0425 35.6274 53.2326 35.6273Z" fill="#62667C"/>
<path d="M32.476 37.355C34.1999 37.355 35.5974 36.2477 35.5974 34.8817C35.5974 33.5157 34.1999 32.4084 32.476 32.4084C30.7522 32.4084 29.3547 33.5157 29.3547 34.8817C29.3547 36.2477 30.7522 37.355 32.476 37.355Z" fill="#62667C"/>
<path d="M30.5483 49.2309C32.1157 47.7985 32.8395 46.0314 32.1649 45.2838C31.4903 44.5363 29.6728 45.0914 28.1055 46.5238C26.5381 47.9561 25.8143 49.7233 26.4889 50.4708C27.1635 51.2183 28.981 50.6632 30.5483 49.2309Z" fill="#62667C"/>
<path d="M46.0173 47.2329C46.8269 45.5795 46.4241 43.7139 45.1175 43.066C43.8109 42.4181 42.0954 43.2333 41.2858 44.8867C40.4762 46.5402 40.879 48.4058 42.1856 49.0537C43.4921 49.7016 45.2077 48.8864 46.0173 47.2329Z" fill="#62667C"/>
<path d="M17.7792 42.1086C19.2113 40.6675 18.8593 37.9768 16.993 36.0987C15.1267 34.2207 12.4529 33.8664 11.0208 35.3075C9.58877 36.7486 9.94078 39.4394 11.8071 41.3174C13.6733 43.1955 16.3472 43.5497 17.7792 42.1086Z" fill="#62667C"/>
<path d="M22.4603 24.299C25.7689 23.5909 28.0365 21.0559 27.5253 18.6368C27.014 16.2177 23.9174 14.8307 20.6089 15.5388C17.3004 16.2469 15.0327 18.782 15.544 21.201C16.0553 23.6201 19.1518 25.0071 22.4603 24.299Z" fill="#62667C"/>
<path d="M9.22327 7.36419C11.2904 8.93999 14.483 9.95096 18.0672 9.95096C24.3038 9.95096 29.3555 6.89085 29.3555 3.11921C29.355 2.74585 29.3044 2.37425 29.2052 2.01449C27.8853 1.13202 26.4045 0.521905 24.8486 0.219481C23.2927 -0.0829433 21.6926 -0.0716599 20.1411 0.252678C17.1701 0.919497 14.4128 2.32546 12.1214 4.3419C11.0559 5.24775 10.0849 6.2604 9.22327 7.36419Z" fill="#62667C"/>
<path d="M42.7867 15.6205C43.1384 15.6205 43.3585 15.6039 43.3991 15.6009C43.6466 15.5808 43.8761 15.4626 44.037 15.2723C44.1979 15.082 44.2771 14.8352 44.2572 14.5861C44.2373 14.337 44.1198 14.1061 43.9307 13.9442C43.7416 13.7823 43.4963 13.7025 43.2488 13.7226C43.1834 13.7279 38.881 14.0251 36.2774 11.2644C36.1063 11.0832 35.8707 10.9778 35.6224 10.9714C35.3741 10.965 35.1335 11.0582 34.9534 11.2304C34.7734 11.4025 34.6686 11.6396 34.6623 11.8895C34.656 12.1393 34.7485 12.3815 34.9196 12.5627C37.5314 15.3302 41.314 15.6205 42.7867 15.6205Z" fill="#62667C"/>
</svg>
